<svg width="416" height="115" viewBox="0 0 416 115" fill="none" xmlns="http://www.w3.org/2000/svg">
<path d="M35.2812 112.119C31.362 112.119 27.4427 111.618 23.5234 110.615C19.6497 109.613 16.0951 108.086 12.8594 106.035C9.6237 103.939 6.88932 101.318 4.65625 98.1738C2.46875 94.9837 1.12435 91.224 0.623047 86.8945L19.7637 87.4414C19.6725 87.7148 19.627 88.0111 19.627 88.3301C19.627 88.6035 19.627 88.877 19.627 89.1504C19.627 91.8392 20.0143 94.2546 20.7891 96.3965C21.6094 98.5384 22.7715 100.361 24.2754 101.865C25.7793 103.324 27.5794 104.44 29.6758 105.215C31.7721 105.99 34.1191 106.377 36.7168 106.377C38.2663 106.377 39.7702 106.217 41.2285 105.898C42.7324 105.579 44.054 105.055 45.1934 104.326C46.3783 103.551 47.3353 102.549 48.0645 101.318C48.7936 100.088 49.1582 98.5384 49.1582 96.6699C49.1582 94.5736 48.4974 92.7734 47.1758 91.2695C45.8542 89.7656 44.2363 88.5124 42.3223 87.5098C40.4538 86.4616 38.4714 85.6185 36.375 84.9805C34.3242 84.2969 32.5241 83.7728 30.9746 83.4082C29.3796 82.998 27.5339 82.5423 25.4375 82.041C23.3867 81.4941 21.2676 80.8789 19.0801 80.1953C16.8926 79.4661 14.7507 78.623 12.6543 77.666C10.5579 76.709 8.68945 75.5697 7.04883 74.248C5.4082 72.9264 4.08659 71.4225 3.08398 69.7363C2.08138 68.0046 1.58008 66.0221 1.58008 63.7891C1.58008 61.2826 2.05859 59.0039 3.01562 56.9531C3.97266 54.9023 5.2487 53.0794 6.84375 51.4844C8.48438 49.8893 10.3529 48.5221 12.4492 47.3828C14.5911 46.1979 16.8014 45.2409 19.0801 44.5117C21.3587 43.737 23.6602 43.1673 25.9844 42.8027C28.3086 42.4382 30.4961 42.2559 32.5469 42.2559C36.0104 42.2559 39.5195 42.666 43.0742 43.4863C46.6745 44.2611 49.9329 45.5371 52.8496 47.3145C55.8118 49.0918 58.2728 51.3932 60.2324 54.2188C62.2376 57.0443 63.3997 60.4622 63.7188 64.4727L45.125 65.9082V65.2246C45.1706 62.5358 44.8516 60.0977 44.168 57.9102C43.5299 55.7227 42.5273 53.8542 41.1602 52.3047C39.8385 50.7552 38.1523 49.5703 36.1016 48.75C34.0964 47.8841 31.7266 47.4512 28.9922 47.4512C27.7617 47.4512 26.4173 47.6335 24.959 47.998C23.5007 48.3626 22.1335 48.9323 20.8574 49.707C19.627 50.4362 18.5788 51.3704 17.7129 52.5098C16.847 53.6491 16.4141 54.9935 16.4141 56.543C16.4141 58.9128 17.1432 60.8268 18.6016 62.2852C20.1055 63.6979 21.9284 64.8372 24.0703 65.7031C26.2122 66.5234 28.4453 67.1615 30.7695 67.6172C33.0938 68.0273 35.1217 68.4375 36.8535 68.8477C38.722 69.2578 40.7044 69.7819 42.8008 70.4199C44.9427 71.0124 47.0391 71.7643 49.0898 72.6758C51.1862 73.5417 53.1686 74.5898 55.0371 75.8203C56.9512 77.0052 58.6374 78.3952 60.0957 79.9902C61.554 81.5397 62.7161 83.3171 63.582 85.3223C64.4479 87.2819 64.8809 89.4922 64.8809 91.9531C64.8809 95.6445 63.9238 98.7891 62.0098 101.387C60.0957 103.939 57.6576 106.012 54.6953 107.607C51.7786 109.202 48.5885 110.342 45.125 111.025C41.6615 111.755 38.3802 112.119 35.2812 112.119ZM97.3516 10.1953L95.0273 57.0898C96.1667 54.9023 97.5111 52.9199 99.0605 51.1426C100.61 49.3197 102.342 47.7702 104.256 46.4941C106.215 45.1725 108.357 44.1699 110.682 43.4863C113.006 42.7572 115.535 42.3926 118.27 42.3926C121.277 42.3926 123.943 42.9622 126.268 44.1016C128.637 45.1953 130.688 46.6764 132.42 48.5449C134.197 50.4134 135.678 52.5781 136.863 55.0391C138.094 57.4544 139.074 59.9837 139.803 62.627C140.577 65.2702 141.124 67.9362 141.443 70.625C141.762 73.3138 141.922 75.8431 141.922 78.2129C141.922 80.9017 141.762 83.7272 141.443 86.6895C141.124 89.6517 140.669 92.6139 140.076 95.5762C139.484 98.4928 138.755 101.364 137.889 104.189C137.068 107.015 136.157 109.658 135.154 112.119L118.27 110.41C119.546 108.132 120.662 105.397 121.619 102.207C122.622 98.9714 123.442 95.599 124.08 92.0898C124.718 88.5807 125.197 85.1172 125.516 81.6992C125.88 78.2357 126.062 75.1595 126.062 72.4707C126.062 70.2376 125.835 67.8678 125.379 65.3613C124.969 62.8548 124.217 60.5534 123.123 58.457C122.075 56.3151 120.639 54.5605 118.816 53.1934C116.993 51.7806 114.692 51.0742 111.912 51.0742C110.226 51.0742 108.676 51.416 107.264 52.0996C105.896 52.7376 104.62 53.5807 103.436 54.6289C102.296 55.6771 101.271 56.8848 100.359 58.252C99.4479 59.6191 98.6504 61.0091 97.9668 62.4219C96.3262 65.7487 95.0501 69.5312 94.1387 73.7695L92.6348 106.787L79.8516 107.881L77.1855 11.6992L97.3516 10.1953ZM226.551 78.0762C226.551 83.5905 225.457 88.4896 223.27 92.7734C221.128 97.0117 218.257 100.612 214.656 103.574C211.102 106.491 206.977 108.701 202.283 110.205C197.589 111.755 192.713 112.529 187.654 112.529C182.641 112.529 178.016 111.663 173.777 109.932C169.585 108.2 165.962 105.807 162.908 102.754C159.855 99.6549 157.462 96.0091 155.73 91.8164C154.044 87.5781 153.201 82.9525 153.201 77.9395C153.201 73.0176 154.204 68.4147 156.209 64.1309C158.26 59.847 160.971 56.11 164.344 52.9199C167.762 49.6842 171.681 47.1549 176.102 45.332C180.522 43.4635 185.148 42.5293 189.979 42.5293C195.219 42.5293 200.073 43.3952 204.539 45.127C209.005 46.8587 212.856 49.2969 216.092 52.4414C219.373 55.5859 221.925 59.3457 223.748 63.7207C225.617 68.0501 226.551 72.8353 226.551 78.0762ZM209.324 77.3926C209.324 75.3418 209.188 73.2227 208.914 71.0352C208.641 68.8021 208.185 66.6374 207.547 64.541C206.954 62.3991 206.157 60.3939 205.154 58.5254C204.197 56.6113 202.99 54.9479 201.531 53.5352C200.073 52.0768 198.364 50.9375 196.404 50.1172C194.445 49.2513 192.212 48.8184 189.705 48.8184C185.877 48.8184 182.71 49.7526 180.203 51.6211C177.697 53.444 175.714 55.791 174.256 58.6621C172.843 61.4876 171.84 64.6094 171.248 68.0273C170.701 71.4453 170.428 74.7038 170.428 77.8027C170.428 79.8535 170.542 81.9954 170.77 84.2285C171.043 86.416 171.476 88.5807 172.068 90.7227C172.661 92.8646 173.436 94.9154 174.393 96.875C175.35 98.7891 176.535 100.498 177.947 102.002C179.406 103.46 181.092 104.622 183.006 105.488C184.965 106.354 187.199 106.787 189.705 106.787C192.257 106.787 194.513 106.354 196.473 105.488C198.432 104.577 200.118 103.392 201.531 101.934C202.99 100.43 204.22 98.6979 205.223 96.7383C206.225 94.7331 207.023 92.6595 207.615 90.5176C208.208 88.3301 208.641 86.1198 208.914 83.8867C209.188 81.6081 209.324 79.4434 209.324 77.3926ZM262.234 14.6387L261.414 42.666H277.615V48.4082H261.277L259.432 110.41L246.854 111.572L245.555 48.4082H228.738V42.666H245.418L245.008 19.0137L262.234 14.6387ZM302.566 0.488281L299.217 110.273L286.16 111.367L282.811 2.33398L302.566 0.488281ZM339.275 29.3359C339.275 30.9766 338.956 32.526 338.318 33.9844C337.726 35.4427 336.883 36.7188 335.789 37.8125C334.695 38.9062 333.419 39.7721 331.961 40.4102C330.503 41.0482 328.93 41.3672 327.244 41.3672C325.558 41.3672 323.963 41.0482 322.459 40.4102C321.001 39.7721 319.725 38.9062 318.631 37.8125C317.537 36.7188 316.671 35.4427 316.033 33.9844C315.395 32.526 315.076 30.9766 315.076 29.3359C315.076 27.6497 315.395 26.0775 316.033 24.6191C316.671 23.1152 317.537 21.8164 318.631 20.7227C319.725 19.6289 321.001 18.763 322.459 18.125C323.963 17.487 325.558 17.168 327.244 17.168C328.93 17.168 330.503 17.487 331.961 18.125C333.419 18.763 334.695 19.6289 335.789 20.7227C336.883 21.8164 337.726 23.1152 338.318 24.6191C338.956 26.0775 339.275 27.6497 339.275 29.3359ZM336.951 48.2715L331.756 114.033L318.562 112.666L317.742 47.2461L336.951 48.2715ZM402.166 112.803C398.338 107.334 394.578 102.275 390.887 97.627C387.241 92.9329 383.481 88.5579 379.607 84.502C375.916 88.9225 372.339 93.457 368.875 98.1055C365.411 102.708 362.176 107.516 359.168 112.529L348.299 103.984C352.947 100.111 357.436 96.123 361.766 92.0215C366.141 87.8743 370.379 83.5905 374.48 79.1699C370.197 74.9772 365.685 71.0124 360.945 67.2754C356.206 63.4928 351.056 59.7786 345.496 56.1328L362.107 42.5293C364.386 47.1777 367.257 51.8717 370.721 56.6113C374.184 61.3053 377.99 65.931 382.137 70.4883C385.965 66.0677 389.588 61.5332 393.006 56.8848C396.424 52.2363 399.705 47.4512 402.85 42.5293L413.787 51.7578C409.093 55.4948 404.536 59.3457 400.115 63.3105C395.695 67.2754 391.434 71.4453 387.332 75.8203C389.793 78.3724 392.254 80.8333 394.715 83.2031C397.221 85.5729 399.682 87.8516 402.098 90.0391C404.559 92.181 406.928 94.209 409.207 96.123C411.486 98.0371 413.628 99.7689 415.633 101.318L402.166 112.803Z" fill="white"/>
</svg>
